<?xml version="1.0" encoding="UTF-8" standalone="no"?>
<!-- Created with Inkscape (http://www.inkscape.org/) -->

<svg
   xmlns:dc="http://purl.org/dc/elements/1.1/"
   xmlns:cc="http://creativecommons.org/ns#"
   xmlns:rdf="http://www.w3.org/1999/02/22-rdf-syntax-ns#"
   xmlns:svg="http://www.w3.org/2000/svg"
   xmlns="http://www.w3.org/2000/svg"
   xmlns:sodipodi="http://sodipodi.sourceforge.net/DTD/sodipodi-0.dtd"
   xmlns:inkscape="http://www.inkscape.org/namespaces/inkscape"
   width="32"
   height="32"
   viewBox="0 0 32 31.999998"
   id="svg2"
   version="1.1"
   inkscape:version="0.91 r13725"
   sodipodi:docname="icon_rabbit.svg"
   inkscape:export-filename="/home/harbaum/projekte/private_stuff/txt/apps/user/brickly/icon_rabbit.png"
   inkscape:export-xdpi="90"
   inkscape:export-ydpi="90">
  <defs
     id="defs4">
    <inkscape:path-effect
       effect="spiro"
       id="path-effect3506"
       is_visible="true" />
  </defs>
  <sodipodi:namedview
     id="base"
     pagecolor="#ffffff"
     bordercolor="#666666"
     borderopacity="1.0"
     inkscape:pageopacity="0.0"
     inkscape:pageshadow="2"
     inkscape:zoom="3.959798"
     inkscape:cx="64.492438"
     inkscape:cy="36.461787"
     inkscape:document-units="px"
     inkscape:current-layer="layer1"
     showgrid="false"
     inkscape:window-width="899"
     inkscape:window-height="779"
     inkscape:window-x="1458"
     inkscape:window-y="14"
     inkscape:window-maximized="0"
     units="px"
     showborder="true" />
  <metadata
     id="metadata7">
    <rdf:RDF>
      <cc:Work
         rdf:about="">
        <dc:format>image/svg+xml</dc:format>
        <dc:type
           rdf:resource="http://purl.org/dc/dcmitype/StillImage" />
        <dc:title></dc:title>
      </cc:Work>
    </rdf:RDF>
  </metadata>
  <g
     inkscape:label="Layer 1"
     inkscape:groupmode="layer"
     id="layer1"
     transform="translate(0,-1020.3622)">
    <path
       style="fill:#fafafa;fill-opacity:1;fill-rule:evenodd;stroke:#e9e9e9;stroke-width:0.29886651px;stroke-linecap:butt;stroke-linejoin:miter;stroke-opacity:1"
       d="m 16.314379,1025.4327 c -0.116743,-5e-4 -0.233729,0 -0.350066,0.01 -1.42302,0.095 -3.366579,0.2191 -2.462222,1.4162 4.634965,6.1353 7.531733,6.6071 7.531733,6.6071 l -0.868723,3.6178 c 0,0 -1.959163,-2.6357 -3.331505,-3.3033 -1.727481,-0.8402 -3.494692,-0.8584 -5.214579,0 -1.9227672,0.9599 -3.6210795,6.1352 -3.6210795,6.1352 l -6.0833025,3.4608 -0.2895741,2.5173 7.097092,-2.2022 2.7523571,-2.0452 c 0,0 2.240804,2.2593 3.765587,2.6743 1.836682,0.4997 4.779938,-0.9442 4.779938,-0.9442 l 7.531735,5.0346 1.303923,-3.1463 -3.186998,-1.1017 -2.317155,-2.3598 1.158857,-0.1569 -0.145067,-2.5173 c 0,0 3.399544,-1.3477 3.766147,-2.9887 0.356386,-1.5954 -0.822801,-3.4146 -2.02814,-4.4051 -0.823104,-0.6763 -3.041372,-0.6289 -3.041372,-0.6289 0,0 -0.942618,-2.5936 -1.883073,-3.4609 -1.332715,-1.2291 -3.113382,-2.1994 -4.864513,-2.2132 z m 8.268272,8.3481 a 0.79663467,0.62926263 0 0 1 0.796469,0.6291 0.79663467,0.62926263 0 0 1 -0.796469,0.6297 0.79663467,0.62926263 0 0 1 -0.79647,-0.6297 0.79663467,0.62926263 0 0 1 0.79647,-0.6291 z"
       id="path3498"
       inkscape:connector-curvature="0" />
  </g>
</svg>
