<?xml version="1.0" encoding="UTF-8" standalone="no"?>
<!-- Created with Inkscape (http://www.inkscape.org/) -->

<svg
   xmlns:dc="http://purl.org/dc/elements/1.1/"
   xmlns:cc="http://creativecommons.org/ns#"
   xmlns:rdf="http://www.w3.org/1999/02/22-rdf-syntax-ns#"
   xmlns:svg="http://www.w3.org/2000/svg"
   xmlns="http://www.w3.org/2000/svg"
   xmlns:sodipodi="http://sodipodi.sourceforge.net/DTD/sodipodi-0.dtd"
   xmlns:inkscape="http://www.inkscape.org/namespaces/inkscape"
   width="32"
   height="32"
   viewBox="0 0 32 31.999998"
   id="svg2"
   version="1.1"
   inkscape:version="0.91 r13725"
   sodipodi:docname="icon_turtle.svg"
   inkscape:export-filename="/home/harbaum/projekte/private_stuff/txt/apps/user/brickly/icon_turtle.png"
   inkscape:export-xdpi="90"
   inkscape:export-ydpi="90">
  <defs
     id="defs4">
    <inkscape:path-effect
       effect="spiro"
       id="path-effect3506"
       is_visible="true" />
  </defs>
  <sodipodi:namedview
     id="base"
     pagecolor="#ffffff"
     bordercolor="#666666"
     borderopacity="1.0"
     inkscape:pageopacity="0.0"
     inkscape:pageshadow="2"
     inkscape:zoom="3.959798"
     inkscape:cx="64.492438"
     inkscape:cy="36.461787"
     inkscape:document-units="px"
     inkscape:current-layer="layer1"
     showgrid="false"
     inkscape:window-width="899"
     inkscape:window-height="779"
     inkscape:window-x="1458"
     inkscape:window-y="14"
     inkscape:window-maximized="0"
     units="px"
     showborder="true" />
  <metadata
     id="metadata7">
    <rdf:RDF>
      <cc:Work
         rdf:about="">
        <dc:format>image/svg+xml</dc:format>
        <dc:type
           rdf:resource="http://purl.org/dc/dcmitype/StillImage" />
        <dc:title></dc:title>
      </cc:Work>
    </rdf:RDF>
  </metadata>
  <g
     inkscape:label="Layer 1"
     inkscape:groupmode="layer"
     id="layer1"
     transform="translate(0,-1020.3622)">
    <path
       style="fill:#fafafa;fill-opacity:1;fill-rule:evenodd;stroke:#e5e5e5;stroke-width:0.29886651px;stroke-linecap:butt;stroke-linejoin:miter;stroke-opacity:1"
       d="m 5.8376667,1039.1006 c 0,0 2.948505,-6.0961 5.3591783,-8.1804 1.185492,-1.0251 2.699225,-2.1116 4.200437,-1.8878 3.100274,0.462 7.386974,6.2926 7.386974,6.2926 l -4.200435,5.978 -10.5735153,0.1573 z"
       id="path3500"
       inkscape:connector-curvature="0"
       sodipodi:nodetypes="csscccc" />
    <path
       style="fill:#fafafa;fill-opacity:1;fill-rule:evenodd;stroke:#eaeaea;stroke-width:0.29886651px;stroke-linecap:butt;stroke-linejoin:miter;stroke-opacity:1"
       d="m 26.478027,1035.5265 c -1.281408,-0.033 -2.969676,0.4276 -2.969676,0.4276 l -2.607294,5.5061 -2.462222,1.5731 -10.5731053,0 -3.331507,-3.3032 c 0,0 -2.687274,1.619 -2.607287,2.9887 0.04344,0.7438 1.593499,1.4156 1.593499,1.4156 l -0.290135,3.1463 2.752355,-0.1569 0.579151,-2.3598 1.013789,2.6743 2.1726469,0 c 0,0 -0.172411,-2.3188 0.5797114,-2.5173 3.835087,-1.012 4.035178,-1.6323 6.807518,0 0.551778,0.3249 0.724215,2.2028 0.724215,2.2028 l 2.896863,0.3145 -0.145067,-2.2022 1.158859,2.0446 2.607294,-0.1569 -0.289583,-5.034 c 0,0 3.74625,1.3995 4.924448,0.157 1.143055,-1.2056 0.71253,-3.6438 0,-5.1917 -0.323875,-0.7035 -1.042673,-1.1956 -1.738005,-1.4155 -0.226656,-0.072 -0.500761,-0.1057 -0.796468,-0.1131 z m -5.32e-4,1.8438 a 0.94147727,0.8652361 0 0 1 0.941536,0.8651 0.94147727,0.8652361 0 0 1 -0.941536,0.865 0.94147727,0.8652361 0 0 1 -0.940978,-0.865 0.94147727,0.8652361 0 0 1 0.940978,-0.8651 z"
       id="path3502"
       inkscape:connector-curvature="0" />
  </g>
</svg>
