<?xml version="1.0" encoding="UTF-8" standalone="no"?>
<svg
   xmlns:dc="http://purl.org/dc/elements/1.1/"
   xmlns:cc="http://creativecommons.org/ns#"
   xmlns:rdf="http://www.w3.org/1999/02/22-rdf-syntax-ns#"
   xmlns:svg="http://www.w3.org/2000/svg"
   xmlns="http://www.w3.org/2000/svg"
   xmlns:sodipodi="http://sodipodi.sourceforge.net/DTD/sodipodi-0.dtd"
   xmlns:inkscape="http://www.inkscape.org/namespaces/inkscape"
   viewBox="0 -256 32 32"
   id="svg3037"
   version="1.1"
   inkscape:version="0.48.4 r9939"
   width="100%"
   height="100%"
   sodipodi:docname="icon_print.svg">
  <metadata
     id="metadata3047">
    <rdf:RDF>
      <cc:Work
         rdf:about="">
        <dc:format>image/svg+xml</dc:format>
        <dc:type
           rdf:resource="http://purl.org/dc/dcmitype/StillImage" />
      </cc:Work>
    </rdf:RDF>
  </metadata>
  <defs
     id="defs3045" />
  <sodipodi:namedview
     pagecolor="#ffffff"
     bordercolor="#666666"
     borderopacity="1"
     objecttolerance="10"
     gridtolerance="10"
     guidetolerance="10"
     inkscape:pageopacity="0"
     inkscape:pageshadow="2"
     inkscape:window-width="1050"
     inkscape:window-height="763"
     id="namedview3043"
     showgrid="false"
     inkscape:zoom="18.96875"
     inkscape:cx="16"
     inkscape:cy="15.947282"
     inkscape:window-x="0"
     inkscape:window-y="25"
     inkscape:window-maximized="0"
     inkscape:current-layer="svg3037" />
  <g
     transform="matrix(0.01746427,0,0,-0.01917842,1.7087553,-227.85976)"
     id="g3039"
     style="fill:#ffffff;fill-opacity:1;stroke:#000000;stroke-opacity:1">
    <path
       d="m 384,0 h 896 V 256 H 384 V 0 z m 0,640 h 896 v 384 h -160 q -40,0 -68,28 -28,28 -28,68 v 160 H 384 V 640 z m 1152,-64 q 0,26 -19,45 -19,19 -45,19 -26,0 -45,-19 -19,-19 -19,-45 0,-26 19,-45 19,-19 45,-19 26,0 45,19 19,19 19,45 z m 128,0 V 160 q 0,-13 -9.5,-22.5 Q 1645,128 1632,128 H 1408 V -32 q 0,-40 -28,-68 -28,-28 -68,-28 H 352 q -40,0 -68,28 -28,28 -28,68 V 128 H 32 Q 19,128 9.5,137.5 0,147 0,160 V 576 Q 0,655 56.5,711.5 113,768 192,768 h 64 v 544 q 0,40 28,68 28,28 68,28 h 672 q 40,0 88,-20 48,-20 76,-48 l 152,-152 q 28,-28 48,-76 20,-48 20,-88 V 768 h 64 q 79,0 135.5,-56.5 Q 1664,655 1664,576 z"
       id="path3041"
       inkscape:connector-curvature="0"
       style="fill:#ffffff;fill-opacity:1;stroke:#000000;stroke-opacity:1" />
  </g>
</svg>
