<?xml version="1.0" encoding="UTF-8" standalone="no"?>
<!-- Created with Inkscape (http://www.inkscape.org/) -->

<svg
   xmlns:dc="http://purl.org/dc/elements/1.1/"
   xmlns:cc="http://creativecommons.org/ns#"
   xmlns:rdf="http://www.w3.org/1999/02/22-rdf-syntax-ns#"
   xmlns:svg="http://www.w3.org/2000/svg"
   xmlns="http://www.w3.org/2000/svg"
   xmlns:xlink="http://www.w3.org/1999/xlink"
   xmlns:sodipodi="http://sodipodi.sourceforge.net/DTD/sodipodi-0.dtd"
   xmlns:inkscape="http://www.inkscape.org/namespaces/inkscape"
   width="64"
   height="64"
   viewBox="0 0 64 64.000002"
   id="svg2"
   version="1.1"
   inkscape:version="0.91 r13725"
   sodipodi:docname="icon.svg"
   inkscape:export-filename="D:\github\ft-c\ftdb\icon.png"
   inkscape:export-xdpi="90"
   inkscape:export-ydpi="90">
  <defs
     id="defs4">
    <linearGradient
       id="linearGradient3778">
      <stop
         id="stop3780"
         offset="0"
         style="stop-color:#448acc;stop-opacity:1;" />
      <stop
         style="stop-color:#5c96cc;stop-opacity:1;"
         offset="0.23076923"
         id="stop3782" />
      <stop
         style="stop-color:#0c6acc;stop-opacity:1;"
         offset="1"
         id="stop3784" />
    </linearGradient>
    <linearGradient
       id="linearGradient4159-2">
      <stop
         style="stop-color:#448acc;stop-opacity:1;"
         offset="0"
         id="stop4219" />
      <stop
         id="stop3776"
         offset="0.5"
         style="stop-color:#5c96cc;stop-opacity:1;" />
      <stop
         id="stop4189"
         offset="1"
         style="stop-color:#0c6acc;stop-opacity:1;" />
    </linearGradient>
    <radialGradient
       inkscape:collect="always"
       xlink:href="#linearGradient4159-2-2"
       id="radialGradient4165"
       cx="9"
       cy="1028.1622"
       fx="9"
       fy="1028.1622"
       r="13"
       gradientTransform="matrix(0.60007064,0,0,0.60390713,-0.07462054,404.55765)"
       gradientUnits="userSpaceOnUse"
       spreadMethod="pad" />
    <radialGradient
       spreadMethod="pad"
       gradientUnits="userSpaceOnUse"
       gradientTransform="matrix(0.60007064,0,0,0.60390713,-24.04998,399.11776)"
       r="13"
       fy="1028.1622"
       fx="9"
       cy="1028.1622"
       cx="9"
       id="radialGradient4165-2"
       xlink:href="#linearGradient4159-2-2"
       inkscape:collect="always" />
    <linearGradient
       inkscape:collect="always"
       id="linearGradient4159-2-2">
      <stop
         id="stop4219-8"
         offset="0"
         style="stop-color:#ababff;stop-opacity:1" />
      <stop
         style="stop-color:#0000b0;stop-opacity:1"
         offset="1"
         id="stop4189-7" />
    </linearGradient>
    <filter
       style="color-interpolation-filters:sRGB;"
       inkscape:label="Lightness-Contrast"
       id="filter3626">
      <feColorMatrix
         values="11 0 0 6 -5 0 11 0 6 -5 0 0 11 6 -5 0 0 0 1 0"
         id="feColorMatrix3628"
         result="fbSourceGraphic" />
      <feColorMatrix
         result="fbSourceGraphicAlpha"
         in="fbSourceGraphic"
         values="0 0 0 -1 0 0 0 0 -1 0 0 0 0 -1 0 0 0 0 1 0"
         id="feColorMatrix3630" />
      <feColorMatrix
         id="feColorMatrix3632"
         values="11 0 0 6 -5 0 11 0 6 -5 0 0 11 6 -5 0 0 0 1 0"
         in="fbSourceGraphic" />
    </filter>
    <filter
       style="color-interpolation-filters:sRGB;"
       inkscape:label="Lightness-Contrast"
       id="filter3754">
      <feColorMatrix
         values="3 0 0 0.2 -1 0 3 0 0.2 -1 0 0 3 0.2 -1 0 0 0 1 0"
         id="feColorMatrix3756"
         result="fbSourceGraphic" />
      <feColorMatrix
         result="fbSourceGraphicAlpha"
         in="fbSourceGraphic"
         values="0 0 0 -1 0 0 0 0 -1 0 0 0 0 -1 0 0 0 0 1 0"
         id="feColorMatrix3758" />
      <feColorMatrix
         id="feColorMatrix3760"
         values="3 0 0 0.2 -1 0 3 0 0.2 -1 0 0 3 0.2 -1 0 0 0 1 0"
         in="fbSourceGraphic"
         result="fbSourceGraphic" />
      <feColorMatrix
         result="fbSourceGraphicAlpha"
         in="fbSourceGraphic"
         values="0 0 0 -1 0 0 0 0 -1 0 0 0 0 -1 0 0 0 0 1 0"
         id="feColorMatrix3762" />
      <feColorMatrix
         id="feColorMatrix3764"
         values="3 0 0 0.2 -1 0 3 0 0.2 -1 0 0 3 0.2 -1 0 0 0 1 0"
         in="fbSourceGraphic" />
    </filter>
    <radialGradient
       inkscape:collect="always"
       xlink:href="#linearGradient4159-2-2"
       id="radialGradient4165-6"
       cx="9"
       cy="1028.1622"
       fx="9"
       fy="1028.1622"
       r="13"
       gradientTransform="matrix(1.2272248,0,0,1.2321277,-0.6684227,-268.80997)"
       gradientUnits="userSpaceOnUse"
       spreadMethod="pad" />
  </defs>
  <sodipodi:namedview
     id="base"
     pagecolor="#ffffff"
     bordercolor="#666666"
     borderopacity="1.0"
     inkscape:pageopacity="0.0"
     inkscape:pageshadow="2"
     inkscape:zoom="7.919596"
     inkscape:cx="1.4116348"
     inkscape:cy="24.677399"
     inkscape:document-units="px"
     inkscape:current-layer="layer1"
     showgrid="true"
     units="px"
     inkscape:window-width="1920"
     inkscape:window-height="976"
     inkscape:window-x="-8"
     inkscape:window-y="-8"
     inkscape:window-maximized="1"
     fit-margin-top="0"
     fit-margin-left="0"
     fit-margin-right="0"
     fit-margin-bottom="0"
     showguides="false">
    <inkscape:grid
       type="xygrid"
       id="grid3336"
       empspacing="5"
       visible="true"
       enabled="true"
       snapvisiblegridlinesonly="true"
       originx="-1.3173673e-09px"
       originy="-6.654646e-05px" />
  </sodipodi:namedview>
  <metadata
     id="metadata7">
    <rdf:RDF>
      <cc:Work
         rdf:about="">
        <dc:format>image/svg+xml</dc:format>
        <dc:type
           rdf:resource="http://purl.org/dc/dcmitype/StillImage" />
        <dc:title />
      </cc:Work>
    </rdf:RDF>
  </metadata>
  <g
     inkscape:label="Layer 1"
     inkscape:groupmode="layer"
     id="layer1"
     transform="translate(0,-988.36213)">
    <circle
       style="fill:url(#radialGradient4165-6);fill-opacity:1;fill-rule:nonzero;stroke:#ffffff;stroke-width:1.25402606;stroke-miterlimit:4;stroke-dasharray:none;stroke-opacity:1"
       id="path3357-8"
       cx="32"
       cy="1020.3621"
       r="31.372988" />
    <circle
       style="fill:url(#radialGradient4165);fill-opacity:1.0;fill-rule:nonzero;stroke:#ffffff;stroke-width:0.61390745999999996;stroke-miterlimit:4;stroke-opacity:1;stroke-dasharray:none"
       id="path3357"
       cx="15.899113"
       cy="1036.4242"
       transform="matrix(2.0451339,0,0,2.0402602,-0.51581362,-1094.2129)"
       sodipodi:ry="15.376954"
       sodipodi:rx="15.34031"
       sodipodi:cy="1036.4242"
       sodipodi:cx="15.899113"
       ry="15.376954"
       rx="15.34031" />
    <g
       id="Expanded"
       transform="matrix(1.0883884,0,0,1.2324499,5.8786784,990.78333)">
      <g
         id="g3375">
        <g
           id="g3377">
          <path
             id="path3379"
             d="M 24,20 C 12.785,20 4,16.047 4,11 4,5.953 12.785,2 24,2 c 11.215,0 20,3.953 20,9 0,5.047 -8.785,9 -20,9 z M 24,4 C 15.486,4 6,6.875 6,11 c 0,4.125 9.486,7 18,7 8.514,0 18,-2.875 18,-7 C 42,6.875 32.514,4 24,4 Z"
             inkscape:connector-curvature="0" />
        </g>
        <g
           id="g3381">
          <path
             id="path3383"
             d="M 24,28 C 12.785,28 4,24.047 4,19 l 0,-8 c 0,-0.553 0.447,-1 1,-1 0.553,0 1,0.447 1,1 l 0,8 c 0,4.125 9.486,7 18,7 8.514,0 18,-2.875 18,-7 l 0,-8 c 0,-0.553 0.447,-1 1,-1 0.553,0 1,0.447 1,1 l 0,8 c 0,5.047 -8.785,9 -20,9 z"
             inkscape:connector-curvature="0" />
        </g>
        <g
           id="g3385">
          <path
             id="path3387"
             d="M 24,37 C 12.785,37 4,33.047 4,28 l 0,-9 c 0,-0.553 0.447,-1 1,-1 0.553,0 1,0.447 1,1 l 0,9 c 0,4.125 9.486,7 18,7 8.514,0 18,-2.875 18,-7 l 0,-9 c 0,-0.553 0.447,-1 1,-1 0.553,0 1,0.447 1,1 l 0,9 c 0,5.047 -8.785,9 -20,9 z"
             inkscape:connector-curvature="0" />
        </g>
        <g
           id="g3389">
          <path
             id="path3391"
             d="M 24,46 C 12.785,46 4,42.047 4,37 l 0,-9 c 0,-0.553 0.447,-1 1,-1 0.553,0 1,0.447 1,1 l 0,9 c 0,4.125 9.486,7 18,7 8.514,0 18,-2.875 18,-7 l 0,-9 c 0,-0.553 0.447,-1 1,-1 0.553,0 1,0.447 1,1 l 0,9 c 0,5.047 -8.785,9 -20,9 z"
             inkscape:connector-curvature="0" />
        </g>
      </g>
    </g>
    <text
       xml:space="preserve"
       style="font-style:normal;font-weight:normal;font-size:51.88040543px;line-height:125%;font-family:sans-serif;letter-spacing:0px;word-spacing:0px;opacity:0.8;fill:#000000;fill-opacity:1;stroke:none;stroke-width:0.2;stroke-linecap:butt;stroke-linejoin:miter;stroke-miterlimit:4;stroke-dasharray:none;stroke-opacity:1;"
       x="10.557543"
       y="1099.7328"
       id="text3409"
       sodipodi:linespacing="125%"
       transform="scale(1.0586205,0.94462558)"><tspan
         sodipodi:role="line"
         id="tspan3411"
         x="10.557543"
         y="1099.7328"
         style="stroke:#ffffff;stroke-width:0.19999997;stroke-linecap:round;stroke-linejoin:round;stroke-miterlimit:4;stroke-dasharray:none;stroke-opacity:1;"><tspan
           style="fill:#ed1c24;fill-opacity:1;stroke:#ffffff;stroke-width:0.19999997;stroke-linecap:round;stroke-linejoin:round;stroke-miterlimit:4;stroke-dasharray:none;stroke-opacity:1;"
           id="tspan4213">f</tspan><tspan
           style="fill:#0071bc;fill-opacity:1;stroke:#ffffff;stroke-width:0.19999997;stroke-linecap:round;stroke-linejoin:round;stroke-miterlimit:4;stroke-dasharray:none;stroke-opacity:1;"
           id="tspan4229">t</tspan></tspan></text>
  </g>
</svg>
